<svg xmlns="http://www.w3.org/2000/svg" viewBox="0 0 24 24"><defs><style>.cls-1{fill:#bd8b13;fill-rule:evenodd;}.cls-2{fill:#4e4c4a;}.cls-3{fill:none;}</style></defs><g id="Layer_2" data-name="Layer 2"><g id="Layer_1-2" data-name="Layer 1"><polygon id="Rectangle" class="cls-1" points="10.46 4.2 13.93 4.2 10.46 7.67 10.46 4.2"/><path class="cls-2" d="M21.13,19.24a21,21,0,0,0-4.06-1.1H17L16.13,18l-1-2.19a6.16,6.16,0,0,0,2.34-3.59A1.48,1.48,0,0,0,18,9.67a5.82,5.82,0,0,0,.26-1.6,4.78,4.78,0,0,0-.93-3.27,2.62,2.62,0,0,0,.11-.4,2.55,2.55,0,0,0-1.32-2.73C14.53.7,12.79-.16,10.8.3s-4,2.29-6,5.55a.2.2,0,0,0,0,.08,3.31,3.31,0,0,0,.31,3A2.43,2.43,0,0,0,6,9.6a1.52,1.52,0,0,0-.58,1.17,1.48,1.48,0,0,0,1,1.41,6,6,0,0,0,2.35,3.61L7.86,18a23.74,23.74,0,0,0-5,1.28A2.91,2.91,0,0,0,1.07,21.8V24h1V21.83a1.91,1.91,0,0,1,1.16-1.68A22.52,22.52,0,0,1,7.93,19l2.69,4.79.88-.49-1.19-2.12h.8a11.92,11.92,0,0,0,2.38-.23l-1,1.59a.52.52,0,0,0-.06.45.49.49,0,0,0,.33.3l2.23.67h2.13a.52.52,0,0,0,.36-.16.5.5,0,0,0,.14-.35l-.06-4.22a17.45,17.45,0,0,1,3.25.92,1.9,1.9,0,0,1,1.12,1.69V24h1V21.78A2.91,2.91,0,0,0,21.13,19.24Zm-6.5-7.76a9.39,9.39,0,0,0-2.72-.62,8.75,8.75,0,0,0-2.54.56l-1-1.32V9.92a11,11,0,0,0,1.15-.15,13.71,13.71,0,0,0,5.76-2.44l.24,2.76Zm-5.12.89a8.42,8.42,0,0,1,2.4-.57,8.55,8.55,0,0,1,2.39.56,8.74,8.74,0,0,0-.1,1.31,10.78,10.78,0,0,0,.11,1.46,4.38,4.38,0,0,1-2.34.94A4.59,4.59,0,0,1,9.45,15a9.33,9.33,0,0,0,.17-1.36C9.62,13.3,9.55,12.74,9.51,12.37Zm8-1.5a.5.5,0,0,1-.46.4.56.56,0,0,0-.37.11.51.51,0,0,0-.17.35,4.47,4.47,0,0,1-1.33,2.65c0-.22,0-.46,0-.71a7.37,7.37,0,0,1,.13-1.37l1.12-1.67a.48.48,0,0,0,.11-.09.63.63,0,0,1,.72-.21A.49.49,0,0,1,17.5,10.87Zm-.69-5.08A4.27,4.27,0,0,1,17.24,8a5.56,5.56,0,0,1-.18,1.28,1.46,1.46,0,0,0-.55.07l-.25-2.88A5.37,5.37,0,0,0,16.81,5.79Zm-11,2.53a2.38,2.38,0,0,1-.17-2c1.86-3,3.61-4.67,5.35-5.07s3.15.39,4.56,1.27a1.58,1.58,0,0,1,.87,1.68C16.14,5.87,13.41,8,9.38,8.77,7.6,9.1,6.37,8.94,5.85,8.32Zm1.6,3.41a.54.54,0,0,0-.52-.46.49.49,0,0,1-.49-.49.51.51,0,0,1,.28-.45.64.64,0,0,1,.76.22s.07.06.1.09l.92,1.25,0,.24c0,.29.15,1.13.15,1.51a5.18,5.18,0,0,1,0,.59A4.29,4.29,0,0,1,7.45,11.73Zm2.24,4.63a5,5,0,0,0,2.29.71,4.69,4.69,0,0,0,2.3-.7l.79,1.68a16.84,16.84,0,0,1-6.17,0Zm0,3.75-.56-1a17.62,17.62,0,0,0,5.52,0l-.35.52A10.67,10.67,0,0,1,9.71,20.11Zm6,2.86.16-.66a.54.54,0,0,0,0-.62.51.51,0,0,0-.59-.14.52.52,0,0,0-.32.52l-.19.77-1.1-.31L16,19l.52.09L16.56,23Z"/><rect class="cls-3" width="24" height="24"/></g></g></svg>