<svg width="20" height="20" viewBox="0 0 20 20" fill="none" xmlns="http://www.w3.org/2000/svg">
<path fill-rule="evenodd" clip-rule="evenodd" d="M10 6.95C9.294 6.95 8.719 6.388 8.719 5.697C8.719 5.007 9.294 4.443 10 4.443C10.706 4.443 11.28 5.006 11.28 5.697C11.28 6.387 10.706 6.95 10 6.95ZM9.08 15.557V7.825H10.814V15.557H9.08ZM10 20C15.523 20 20 15.523 20 10C20 4.477 15.523 0 10 0C4.477 0 0 4.477 0 10C0 15.523 4.477 20 10 20ZM10 18.261C5.444 18.261 1.738 14.555 1.738 10C1.738 5.445 5.444 1.739 10 1.739C14.555 1.739 18.261 5.445 18.261 10C18.261 14.555 14.555 18.261 10 18.261Z" fill="#005F96"/>
</svg>
