<svg width="32" height="32" viewBox="0 0 32 32" fill="none" xmlns="http://www.w3.org/2000/svg">
<path d="M15 23L8 16L15 9" stroke="#4E4C4A"/>
<path d="M8 16L23 16" stroke="#4E4C4A"/>
<path fill-rule="evenodd" clip-rule="evenodd" d="M0.999217 16C0.999218 7.71573 7.71495 0.999998 15.9992 0.999999C22.7142 0.999999 28.3986 5.41239 30.3112 11.496L31.1172 10.7476C28.9437 4.49101 22.9959 -7.31497e-07 15.9992 -1.34317e-06C7.16266 -2.11569e-06 -0.000781749 7.16344 -0.000782522 16C-0.000783294 24.8366 7.16266 32 15.9992 32C23.2803 32 29.4255 27.1365 31.3633 20.4809L30.5362 19.7129C28.8839 26.2013 23.002 31 15.9992 31C7.71494 31 0.999217 24.2843 0.999217 16Z" fill="#4E4C4A"/>
<path d="M28 15.5L32 19L32 12L28 15.5Z" fill="#BD8B13"/>
</svg>
